# xmcd
#
# Track frame offsets: 
#        150
#        15652
#        36294
#        55750
#        75239
#        96929
#        116279
#        139462
#        167362
#        188555
#        210545
#        236037
#        257730
#        277097
#
# Disc length: 3957 seconds
#
# Revision: 4
# Processed by: cddbd v1.5.2PL0 Copyright (c) Steve Scherf et al.
# Submitted via: ExactAudioCopy v1.3
#
DISCID=b70f730e
DTITLE=August Burns Red - Found In Far Away Places
DYEAR=2015
DGENRE=Metal
TTITLE0=The Wake
TTITLE1=Martyr
TTITLE2=Identity
TTITLE3=Separating The Seas
TTITLE4=Ghosts
TTITLE5=Majoring In The Minors
TTITLE6=Everlasting Ending
TTITLE7=Broken Promises
TTITLE8=Blackwood
TTITLE9=Twenty-One Grams
TTITLE10=Vanguard
TTITLE11=Marathon
TTITLE12=Majoring In The Minors (Reprise)
TTITLE13=Identity (MIDI)
EXTD=Fearless Records
EXTT0=
EXTT1=
EXTT2=
EXTT3=
EXTT4=
EXTT5=
EXTT6=
EXTT7=
EXTT8=
EXTT9=
EXTT10=
EXTT11=
EXTT12=
EXTT13=
PLAYORDER=
